# xmcd
#
# Track frame offsets:
#	165
#	21057
#	32830
#	43614
#	59309
#	75311
#	83756
#	102253
#	116933
#	131277
#	144143
#	154007
#
# Disc length: 2235 seconds
#
# Revision: 0
# Processed by: cddbd v1.5.2PL0 Copyright (c) Steve Scherf et al.
# Submitted via: EZCDAudioConverter 2.2.2.1
#
DISCID=8b08b90c
DTITLE=Various Artist - Kolekce Niagara
DYEAR=1900
DGENRE=
TTITLE0=Ascalona
TTITLE1=Prokleta fordka
TTITLE2=Posledni mile
TTITLE3=Poraneny koleno
TTITLE4=Laredo
TTITLE5=Smutna bedla jedla
TTITLE6=Tereza
TTITLE7=Texaska patrola
TTITLE8=Frankie dlouhan
TTITLE9=Fajnova zeme
TTITLE10=Pikovicky Pacifik
TTITLE11=Kamaradsky kruh
EXTD=
EXTT0=
EXTT1=
EXTT2=
EXTT3=
EXTT4=
EXTT5=
EXTT6=
EXTT7=
EXTT8=
EXTT9=
EXTT10=
EXTT11=
PLAYORDER=
